<svg width="30" height="30" viewBox="0 0 30 30" fill="none" xmlns="http://www.w3.org/2000/svg">
<path fill-rule="evenodd" clip-rule="evenodd" d="M0.550781 2.4998C0.550781 2.11321 0.864182 1.7998 1.25078 1.7998H6.21068C6.54472 1.7998 6.83222 2.03583 6.89728 2.36348L8.02626 8.04965L28.7508 8.0496C28.9592 8.0496 29.1568 8.14249 29.2898 8.30299C29.4228 8.46349 29.4773 8.67491 29.4386 8.87972L27.4546 19.367L27.4536 19.3722C27.3087 20.1075 26.9117 20.7691 26.3306 21.2407C25.7512 21.7109 25.0258 21.962 24.2806 21.9493L12.0202 21.9493C11.2749 21.9621 10.5495 21.711 9.97007 21.2408C9.38901 20.7693 8.99201 20.1077 8.84708 19.3725L8.84701 19.3722L6.77251 8.92387C6.76625 8.89946 6.76128 8.87453 6.75767 8.84916L5.636 3.1998H1.25078C0.864182 3.1998 0.550781 2.8864 0.550781 2.4998ZM8.30423 9.44965L10.2204 19.1006L10.2206 19.1016C10.3025 19.5172 10.5266 19.8894 10.8522 20.1537C11.1777 20.4178 11.5841 20.5575 12.0002 20.5495L12.0138 20.5492V20.5493L24.2869 20.5493H24.3004L24.3004 20.5494C24.7165 20.5575 25.1229 20.4178 25.4484 20.1536C25.7734 19.8899 25.9973 19.5186 26.0796 19.1039L26.08 19.1015L27.9059 9.4496L8.30423 9.44965ZM19.0008 17.4998C19.0008 17.7759 18.7769 17.9998 18.5008 17.9998C18.2246 17.9998 18.0008 17.7759 18.0008 17.4998C18.0008 17.2237 18.2246 16.9998 18.5008 16.9998C18.7769 16.9998 19.0008 17.2237 19.0008 17.4998ZM12.4244 28.7498C13.8051 28.7498 14.9244 27.6305 14.9244 26.2498C14.9244 24.8691 13.8051 23.7498 12.4244 23.7498C11.0437 23.7498 9.92437 24.8691 9.92437 26.2498C9.92437 27.6305 11.0437 28.7498 12.4244 28.7498ZM23.5899 28.7498C24.9706 28.7498 26.0899 27.6305 26.0899 26.2498C26.0899 24.8691 24.9706 23.7498 23.5899 23.7498C22.2092 23.7498 21.0899 24.8691 21.0899 26.2498C21.0899 27.6305 22.2092 28.7498 23.5899 28.7498Z" fill="black"/>
</svg>
