<svg width="18" height="18" viewBox="0 0 18 18" fill="none" xmlns="http://www.w3.org/2000/svg">
<g clip-path="url(#clip0_2206_11180)">
<path fill-rule="evenodd" clip-rule="evenodd" d="M17.0494 3.20617C17.3281 3.49578 17.526 3.8544 17.6232 4.2458C17.8827 5.69621 18.0087 7.1677 17.9995 8.6415C18.0047 10.0933 17.8787 11.5425 17.6232 12.9712C17.526 13.3626 17.3281 13.7212 17.0494 14.0108C16.7707 14.3004 16.4211 14.5108 16.036 14.6206C14.6288 15 9 15 9 15C9 15 3.3712 15 1.964 14.6206C1.58669 14.5166 1.24239 14.3162 0.964354 14.0388C0.686319 13.7614 0.483955 13.4164 0.376812 13.0372C0.117272 11.5868 -0.00871244 10.1153 0.000467687 8.6415C-0.00670257 7.17872 0.119273 5.71836 0.376812 4.27878C0.473997 3.88739 0.671928 3.52877 0.950611 3.23916C1.22929 2.94955 1.57886 2.7392 1.964 2.62937C3.3712 2.25 9 2.25 9 2.25C9 2.25 14.6288 2.25 16.036 2.59638C16.4211 2.70622 16.7707 2.91656 17.0494 3.20617ZM11.6103 8.65591L7.29778 11.1084V6.20341L11.6103 8.65591Z" fill="white"/>
</g>
<defs>
<clipPath id="clip0_2206_11180">
<rect width="18" height="18" fill="white"/>
</clipPath>
</defs>
</svg>
