<svg width="24" height="24" viewBox="0 0 24 24" fill="none" xmlns="http://www.w3.org/2000/svg">
<g clip-path="url(#clip0_2206_17979)">
<path d="M22.1494 2.94496C21.5629 2.32835 20.8667 1.83921 20.1003 1.50549C19.334 1.17177 18.5126 1 17.6831 1C16.8535 1 16.0321 1.17177 15.2658 1.50549C14.4994 1.83921 13.8032 2.32835 13.2167 2.94496L11.9997 4.22404L10.7826 2.94496C9.59811 1.70004 7.99152 1.00065 6.31633 1.00065C4.64114 1.00065 3.03455 1.70004 1.85001 2.94496C0.665469 4.18988 1.24812e-08 5.87836 0 7.63895C-1.24812e-08 9.39954 0.665469 11.088 1.85001 12.3329L3.06705 13.612L11.9997 23L20.9323 13.612L22.1494 12.3329C22.7361 11.7166 23.2015 10.9849 23.519 10.1794C23.8366 9.37403 24 8.51076 24 7.63895C24 6.76714 23.8366 5.90387 23.519 5.09846C23.2015 4.29305 22.7361 3.56128 22.1494 2.94496Z" fill="white" fill-opacity="0.7"/>
<path d="M13.7239 3.42748L13.724 3.42736C14.2471 2.87732 14.8663 2.44295 15.5453 2.14728C16.2241 1.85165 16.9505 1.7 17.6831 1.7C18.4157 1.7 19.142 1.85165 19.8208 2.14728C20.4998 2.44295 21.119 2.87732 21.6421 3.42736L21.6424 3.4276C22.1658 3.97746 22.5828 4.63218 22.8678 5.3552C23.1529 6.07827 23.3 6.85439 23.3 7.63895C23.3 8.42351 23.1529 9.19963 22.8678 9.9227C22.5828 10.6457 22.1658 11.3004 21.6424 11.8503L21.6423 11.8504L20.4252 13.1295L11.9997 21.9845L3.57417 13.1295L2.35713 11.8504C1.29975 10.7391 0.7 9.2248 0.7 7.63895C0.7 6.05309 1.29975 4.53877 2.35713 3.42748C3.41339 2.31738 4.83833 1.70065 6.31633 1.70065C7.79433 1.70065 9.21927 2.31738 10.2755 3.42748L11.4926 4.70657C11.6247 4.84543 11.808 4.92404 11.9997 4.92404C12.1914 4.92404 12.3747 4.84543 12.5068 4.70657L13.7239 3.42748Z" stroke="black" stroke-width="1.4" stroke-linecap="round" stroke-linejoin="round"/>
</g>
<defs>
<clipPath id="clip0_2206_17979">
<rect width="24" height="24" fill="white"/>
</clipPath>
</defs>
</svg>
