<svg width="18" height="18" viewBox="0 0 18 18" fill="none" xmlns="http://www.w3.org/2000/svg">
<path d="M13.2945 3.90384C12.8526 3.90384 12.4945 4.26201 12.4945 4.70384C12.4945 5.14567 12.8526 5.50384 13.2945 5.50384H13.302C13.7438 5.50384 14.102 5.14567 14.102 4.70384C14.102 4.26201 13.7438 3.90384 13.302 3.90384H13.2945Z" fill="white"/>
<path fill-rule="evenodd" clip-rule="evenodd" d="M9.60764 5.0842C8.79109 4.96312 7.95714 5.10259 7.22442 5.48278C6.4917 5.86298 5.89752 6.46453 5.5264 7.20188C5.15527 7.93923 5.02609 8.77483 5.15723 9.58983C5.28838 10.4048 5.67317 11.1577 6.25687 11.7414C6.84057 12.3251 7.59347 12.7099 8.40847 12.8411C9.22347 12.9722 10.0591 12.843 10.7964 12.4719C11.5338 12.1008 12.1353 11.5066 12.5155 10.7739C12.8957 10.0412 13.0352 9.20722 12.9141 8.39066C12.7906 7.55774 12.4025 6.78664 11.8071 6.19123C11.2117 5.59583 10.4406 5.20771 9.60764 5.0842ZM7.96134 6.90298C8.39533 6.67779 8.88929 6.59518 9.37295 6.6669C9.86629 6.74005 10.323 6.96994 10.6757 7.32261C11.0284 7.67527 11.2582 8.13201 11.3314 8.62535C11.4031 9.10901 11.3205 9.60297 11.0953 10.037C10.8701 10.471 10.5138 10.8229 10.0771 11.0427C9.64033 11.2626 9.1454 11.3391 8.66266 11.2614C8.17993 11.1837 7.73398 10.9558 7.38824 10.6101C7.04251 10.2643 6.81459 9.81837 6.73691 9.33564C6.65923 8.8529 6.73575 8.35797 6.95557 7.92122C7.1754 7.48448 7.52734 7.12817 7.96134 6.90298Z" fill="white"/>
<path fill-rule="evenodd" clip-rule="evenodd" d="M0.386719 5.0944C0.386719 2.4955 2.49354 0.388672 5.09244 0.388672H12.9039C15.5028 0.388672 17.6096 2.4955 17.6096 5.0944V12.9058C17.6096 13.8549 17.3286 14.7384 16.8454 15.4776C16.8274 15.6237 16.7355 15.7468 16.6081 15.8084C15.7466 16.9062 14.4076 17.6116 12.9039 17.6116H5.09244C2.49354 17.6116 0.386719 15.5047 0.386719 12.9058V5.0944ZM5.09244 1.98867C3.3772 1.98867 1.98672 3.37915 1.98672 5.0944V12.9058C1.98672 14.6211 3.3772 16.0116 5.09244 16.0116H12.9039C14.6191 16.0116 16.0096 14.6211 16.0096 12.9058V5.0944C16.0096 3.37915 14.6191 1.98867 12.9039 1.98867H5.09244Z" fill="white"/>
</svg>
