<svg width="18" height="18" viewBox="0 0 18 18" fill="none" xmlns="http://www.w3.org/2000/svg">
<path d="M18 1.50841C17.2165 2.07307 16.349 2.50495 15.4309 2.78741C14.9382 2.20852 14.2833 1.79822 13.5548 1.612C12.8264 1.42578 12.0596 1.47262 11.3581 1.74619C10.6565 2.01977 10.0542 2.50686 9.63244 3.14161C9.2107 3.77636 8.98993 4.52813 9 5.29525V6.1312C7.56215 6.1693 6.13741 5.84348 4.85264 5.18277C3.56788 4.52207 2.46299 3.54698 1.63636 2.34435C1.63636 2.34435 -1.63636 9.86789 5.72727 13.2117C4.04225 14.3803 2.03495 14.9663 0 14.8836C7.36364 19.0633 16.3636 14.8836 16.3636 5.27018C16.3629 5.03733 16.341 4.80505 16.2982 4.57634C17.1332 3.73495 17.7225 2.67264 18 1.50841Z" fill="white"/>
</svg>
