<svg width="18" height="18" viewBox="0 0 18 18" fill="none" xmlns="http://www.w3.org/2000/svg">
<path d="M15.75 8.125V5.875H14.625V8.125H12.375V9.25H14.625V11.5H15.75V9.25H18V8.125H15.75Z" fill="white"/>
<path d="M5.5 8.4V10.6H8.6119C8.1576 11.8804 6.9344 12.8 5.5 12.8C3.6806 12.8 2.2 11.3194 2.2 9.5C2.2 7.6806 3.6806 6.2 5.5 6.2C6.2887 6.2 7.0477 6.4827 7.6373 6.9964L9.0827 5.3376C8.0927 4.4752 6.8211 4 5.5 4C2.4673 4 0 6.4673 0 9.5C0 12.5327 2.4673 15 5.5 15C8.5327 15 11 12.5327 11 9.5V8.4H5.5Z" fill="white"/>
</svg>
