<svg width="18" height="18" viewBox="0 0 18 18" fill="none" xmlns="http://www.w3.org/2000/svg">
<path d="M0 2.8125C0 1.67341 0.895431 0.75 2 0.75C3.10457 0.75 4 1.67341 4 2.8125C4 3.95159 3.10457 4.875 2 4.875C0.895431 4.875 0 3.95159 0 2.8125Z" fill="black"/>
<path d="M0 9C0 7.86091 0.895431 6.9375 2 6.9375C3.10457 6.9375 4 7.86091 4 9C4 10.1391 3.10457 11.0625 2 11.0625C0.895431 11.0625 0 10.1391 0 9Z" fill="black"/>
<path d="M0 15.1875C0 14.0484 0.895431 13.125 2 13.125C3.10457 13.125 4 14.0484 4 15.1875C4 16.3266 3.10457 17.25 2 17.25C0.895431 17.25 0 16.3266 0 15.1875Z" fill="black"/>
<path d="M5 1.78125H18V3.84375H5V1.78125Z" fill="black"/>
<path d="M5 7.96875H18V10.0312H5V7.96875Z" fill="black"/>
<path d="M5 14.1562H18V16.2188H5V14.1562Z" fill="black"/>
</svg>
