<svg width="159" height="44" viewBox="0 0 159 44" fill="none" xmlns="http://www.w3.org/2000/svg">
<path d="M55.2536 25.3444V31.3969H50.9531V13.5581H58.0715C59.4355 13.5581 60.6403 13.8113 61.6858 14.3177C62.7395 14.8159 63.5522 15.5306 64.1239 16.4618C64.7039 17.3848 64.9938 18.4343 64.9938 19.6105C64.9938 21.3503 64.369 22.7429 63.1193 23.7884C61.8778 24.8258 60.1707 25.3444 57.998 25.3444H55.2536ZM55.2536 22.0242H58.0715C58.9046 22.0242 59.5376 21.8159 59.9705 21.3993C60.4116 20.9827 60.6321 20.3946 60.6321 19.635C60.6321 18.8019 60.4075 18.1362 59.9583 17.638C59.5091 17.1397 58.8965 16.8865 58.1205 16.8783H55.2536V22.0242Z" fill="black"/>
<path d="M73.8432 21.3013V21.3135L76.7959 13.5581H81.3291L75.3256 27.709C74.6804 29.1384 73.9534 30.1472 73.1448 30.7353C72.3443 31.3152 71.405 31.6215 70.3269 31.6542H69.457L68.7954 31.6297L68.7218 28.2971C68.8199 28.3298 69.1057 28.3461 69.5795 28.3461C70.2329 28.3461 70.723 28.2359 71.0497 28.0153C71.3846 27.7866 71.6541 27.3497 71.8583 26.7044L72.0666 26.1163L65.6221 13.5581H70.1921L73.8432 21.3013Z" fill="black"/>
<path d="M96.5617 25.3567C96.5045 26.5982 96.1696 27.6968 95.557 28.6524C94.9444 29.5999 94.0827 30.335 92.9718 30.8578C91.8692 31.3805 90.6072 31.6419 89.186 31.6419C86.8418 31.6419 84.9958 30.8782 83.6481 29.3508C82.3004 27.8234 81.6266 25.6671 81.6266 22.8818V21.9996C81.6266 20.2517 81.9288 18.7243 82.5332 17.4174C83.1458 16.1024 84.0239 15.0896 85.1674 14.379C86.3109 13.6602 87.6341 13.3008 89.137 13.3008C91.3015 13.3008 93.0413 13.8725 94.3563 15.0161C95.6714 16.1514 96.4187 17.7196 96.5984 19.7208H92.3102C92.2776 18.6345 92.0039 17.8544 91.4894 17.3807C90.9748 16.9069 90.1907 16.6701 89.137 16.6701C88.067 16.6701 87.2829 17.0703 86.7846 17.8707C86.2864 18.6712 86.025 19.9495 86.0005 21.7056V22.9676C86.0005 24.8707 86.2374 26.2306 86.7111 27.0474C87.193 27.8642 88.018 28.2726 89.186 28.2726C90.1743 28.2726 90.9299 28.0398 91.4526 27.5743C91.9753 27.1087 92.2531 26.3695 92.2857 25.3567H96.5617Z" fill="black"/>
<path d="M111.855 16.8783H106.501V31.3969H102.201V16.8783H96.9449V13.5581H111.855V16.8783Z" fill="black"/>
<path d="M117.605 25.3444V31.3969H113.305V13.5581H120.423C121.787 13.5581 122.992 13.8113 124.037 14.3177C125.091 14.8159 125.904 15.5306 126.475 16.4618C127.055 17.3848 127.345 18.4343 127.345 19.6105C127.345 21.3503 126.721 22.7429 125.471 23.7884C124.229 24.8258 122.522 25.3444 120.35 25.3444H117.605ZM117.605 22.0242H120.423C121.256 22.0242 121.889 21.8159 122.322 21.3993C122.763 20.9827 122.984 20.3946 122.984 19.635C122.984 18.8019 122.759 18.1362 122.31 17.638C121.861 17.1397 121.248 16.8865 120.472 16.8783H117.605V22.0242Z" fill="black"/>
<path d="M137.224 28.0644H131.331L130.302 31.3969H125.707L132.25 13.5581H136.293L142.884 31.3969H138.265L137.224 28.0644ZM132.36 24.7441H136.195L134.271 18.5569L132.36 24.7441Z" fill="black"/>
<path d="M150.129 24.3398H148.095V31.3969H143.794V13.5581H148.095V20.4559H149.749L153.179 13.5581H158.386L153.486 21.7914L158.999 31.3969H153.914L150.129 24.3398Z" fill="black"/>
<path fill-rule="evenodd" clip-rule="evenodd" d="M43.2642 23.7764C44.2453 22.7953 44.2453 21.2047 43.2642 20.2236L23.7764 0.735796C22.7953 -0.245266 21.2047 -0.245265 20.2236 0.735797L0.735796 20.2236C-0.245266 21.2047 -0.245265 22.7953 0.735796 23.7764L20.2236 43.2642C21.2047 44.2453 22.7953 44.2453 23.7764 43.2642L43.2642 23.7764ZM34.8912 23.7764C35.8722 22.7953 35.8722 21.2047 34.8912 20.2236L23.7764 9.10881C22.7953 8.12775 21.2047 8.12775 20.2236 9.10881L9.10881 20.2236C8.12775 21.2047 8.12775 22.7953 9.10881 23.7764L20.2236 34.8912C21.2047 35.8722 22.7953 35.8722 23.7764 34.8912L34.8912 23.7764Z" fill="#FEC80B"/>
</svg>
